<mxfile host="app.diagrams.net" agent="Mozilla/5.0 (Windows NT 10.0; Win64; x64) AppleWebKit/537.36 (KHTML, like Gecko) Chrome/133.0.0.0 Safari/537.36" version="26.0.14">
  <diagram name="Page-1" id="QHTUdcQEXf94xLVi2kvm">
    <mxGraphModel dx="712" dy="737" grid="1" gridSize="10" guides="1" tooltips="1" connect="1" arrows="1" fold="1" page="1" pageScale="1" pageWidth="850" pageHeight="1100" math="0" shadow="0">
      <root>
        <mxCell id="0" />
        <mxCell id="1" parent="0" />
        <mxCell id="e9U0abkdqi3mbfvJPGBw-5" value="" style="rounded=0;whiteSpace=wrap;html=1;" vertex="1" parent="1">
          <mxGeometry x="480" y="160" width="320" height="530" as="geometry" />
        </mxCell>
        <mxCell id="e9U0abkdqi3mbfvJPGBw-6" value="Ticket System" style="text;html=1;align=center;verticalAlign=middle;whiteSpace=wrap;rounded=0;" vertex="1" parent="1">
          <mxGeometry x="600" y="130" width="80" height="30" as="geometry" />
        </mxCell>
        <mxCell id="e9U0abkdqi3mbfvJPGBw-18" style="edgeStyle=orthogonalEdgeStyle;rounded=0;orthogonalLoop=1;jettySize=auto;html=1;exitX=1;exitY=0.3333333333333333;exitDx=0;exitDy=0;exitPerimeter=0;entryX=0;entryY=0.5;entryDx=0;entryDy=0;" edge="1" parent="1" source="e9U0abkdqi3mbfvJPGBw-7" target="e9U0abkdqi3mbfvJPGBw-17">
          <mxGeometry relative="1" as="geometry" />
        </mxCell>
        <mxCell id="e9U0abkdqi3mbfvJPGBw-7" value="Officer" style="shape=umlActor;verticalLabelPosition=bottom;verticalAlign=top;html=1;outlineConnect=0;" vertex="1" parent="1">
          <mxGeometry x="70" y="270" width="30" height="60" as="geometry" />
        </mxCell>
        <mxCell id="e9U0abkdqi3mbfvJPGBw-10" value="Generate Ticket Record" style="ellipse;whiteSpace=wrap;html=1;align=center;" vertex="1" parent="1">
          <mxGeometry x="500" y="180" width="100" height="40" as="geometry" />
        </mxCell>
        <mxCell id="e9U0abkdqi3mbfvJPGBw-27" style="edgeStyle=orthogonalEdgeStyle;rounded=0;orthogonalLoop=1;jettySize=auto;html=1;exitX=1;exitY=0.3333333333333333;exitDx=0;exitDy=0;exitPerimeter=0;entryX=0;entryY=0.5;entryDx=0;entryDy=0;" edge="1" parent="1" source="e9U0abkdqi3mbfvJPGBw-15" target="e9U0abkdqi3mbfvJPGBw-26">
          <mxGeometry relative="1" as="geometry" />
        </mxCell>
        <mxCell id="e9U0abkdqi3mbfvJPGBw-15" value="Driver" style="shape=umlActor;verticalLabelPosition=bottom;verticalAlign=top;html=1;" vertex="1" parent="1">
          <mxGeometry x="140" y="370" width="30" height="60" as="geometry" />
        </mxCell>
        <mxCell id="e9U0abkdqi3mbfvJPGBw-17" value="Issue&lt;span style=&quot;background-color: transparent; color: light-dark(rgb(0, 0, 0), rgb(255, 255, 255));&quot;&gt;&amp;nbsp;Ticket&lt;/span&gt;" style="ellipse;whiteSpace=wrap;html=1;align=center;" vertex="1" parent="1">
          <mxGeometry x="105" y="270" width="100" height="40" as="geometry" />
        </mxCell>
        <mxCell id="e9U0abkdqi3mbfvJPGBw-19" style="edgeStyle=orthogonalEdgeStyle;rounded=0;orthogonalLoop=1;jettySize=auto;html=1;exitX=0.5;exitY=1;exitDx=0;exitDy=0;entryX=0.5;entryY=0.5;entryDx=0;entryDy=0;entryPerimeter=0;" edge="1" parent="1" source="e9U0abkdqi3mbfvJPGBw-17" target="e9U0abkdqi3mbfvJPGBw-15">
          <mxGeometry relative="1" as="geometry" />
        </mxCell>
        <mxCell id="e9U0abkdqi3mbfvJPGBw-25" style="edgeStyle=orthogonalEdgeStyle;rounded=0;orthogonalLoop=1;jettySize=auto;html=1;exitX=0.5;exitY=0;exitDx=0;exitDy=0;exitPerimeter=0;entryX=0;entryY=0.5;entryDx=0;entryDy=0;" edge="1" parent="1" source="e9U0abkdqi3mbfvJPGBw-23" target="e9U0abkdqi3mbfvJPGBw-10">
          <mxGeometry relative="1" as="geometry" />
        </mxCell>
        <mxCell id="e9U0abkdqi3mbfvJPGBw-23" value="Clerk" style="shape=umlActor;verticalLabelPosition=bottom;verticalAlign=top;html=1;outlineConnect=0;" vertex="1" parent="1">
          <mxGeometry x="310" y="260" width="30" height="60" as="geometry" />
        </mxCell>
        <mxCell id="e9U0abkdqi3mbfvJPGBw-24" style="edgeStyle=orthogonalEdgeStyle;rounded=0;orthogonalLoop=1;jettySize=auto;html=1;exitX=1;exitY=0.5;exitDx=0;exitDy=0;entryX=0.5;entryY=0.5;entryDx=0;entryDy=0;entryPerimeter=0;" edge="1" parent="1" source="e9U0abkdqi3mbfvJPGBw-17" target="e9U0abkdqi3mbfvJPGBw-23">
          <mxGeometry relative="1" as="geometry" />
        </mxCell>
        <mxCell id="e9U0abkdqi3mbfvJPGBw-26" value="Request Trial" style="ellipse;whiteSpace=wrap;html=1;align=center;" vertex="1" parent="1">
          <mxGeometry x="200" y="370" width="100" height="40" as="geometry" />
        </mxCell>
        <mxCell id="e9U0abkdqi3mbfvJPGBw-28" style="edgeStyle=orthogonalEdgeStyle;rounded=0;orthogonalLoop=1;jettySize=auto;html=1;exitX=0.5;exitY=0;exitDx=0;exitDy=0;entryX=0.5;entryY=0.5;entryDx=0;entryDy=0;entryPerimeter=0;" edge="1" parent="1" source="e9U0abkdqi3mbfvJPGBw-26" target="e9U0abkdqi3mbfvJPGBw-23">
          <mxGeometry relative="1" as="geometry" />
        </mxCell>
        <mxCell id="e9U0abkdqi3mbfvJPGBw-30" value="Generate Court Case" style="ellipse;whiteSpace=wrap;html=1;align=center;" vertex="1" parent="1">
          <mxGeometry x="640" y="570" width="100" height="40" as="geometry" />
        </mxCell>
        <mxCell id="e9U0abkdqi3mbfvJPGBw-38" style="edgeStyle=orthogonalEdgeStyle;rounded=0;orthogonalLoop=1;jettySize=auto;html=1;exitX=0.5;exitY=0;exitDx=0;exitDy=0;exitPerimeter=0;entryX=0.5;entryY=1;entryDx=0;entryDy=0;" edge="1" parent="1" source="e9U0abkdqi3mbfvJPGBw-32" target="e9U0abkdqi3mbfvJPGBw-37">
          <mxGeometry relative="1" as="geometry" />
        </mxCell>
        <mxCell id="e9U0abkdqi3mbfvJPGBw-43" style="edgeStyle=orthogonalEdgeStyle;rounded=0;orthogonalLoop=1;jettySize=auto;html=1;exitX=0.75;exitY=0.1;exitDx=0;exitDy=0;exitPerimeter=0;entryX=0.5;entryY=1;entryDx=0;entryDy=0;" edge="1" parent="1" source="e9U0abkdqi3mbfvJPGBw-32" target="e9U0abkdqi3mbfvJPGBw-41">
          <mxGeometry relative="1" as="geometry" />
        </mxCell>
        <mxCell id="e9U0abkdqi3mbfvJPGBw-32" value="Court" style="shape=umlActor;verticalLabelPosition=bottom;verticalAlign=top;html=1;outlineConnect=0;" vertex="1" parent="1">
          <mxGeometry x="155" y="590" width="30" height="60" as="geometry" />
        </mxCell>
        <mxCell id="e9U0abkdqi3mbfvJPGBw-37" value="Send Guilty Verdict" style="ellipse;whiteSpace=wrap;html=1;align=center;" vertex="1" parent="1">
          <mxGeometry x="120" y="510" width="100" height="40" as="geometry" />
        </mxCell>
        <mxCell id="e9U0abkdqi3mbfvJPGBw-39" style="edgeStyle=orthogonalEdgeStyle;rounded=0;orthogonalLoop=1;jettySize=auto;html=1;exitX=0.5;exitY=0;exitDx=0;exitDy=0;entryX=1;entryY=1;entryDx=0;entryDy=0;entryPerimeter=0;" edge="1" parent="1" source="e9U0abkdqi3mbfvJPGBw-37" target="e9U0abkdqi3mbfvJPGBw-15">
          <mxGeometry relative="1" as="geometry" />
        </mxCell>
        <mxCell id="e9U0abkdqi3mbfvJPGBw-48" style="edgeStyle=orthogonalEdgeStyle;rounded=0;orthogonalLoop=1;jettySize=auto;html=1;exitX=1;exitY=0.5;exitDx=0;exitDy=0;entryX=0;entryY=0.5;entryDx=0;entryDy=0;" edge="1" parent="1" source="e9U0abkdqi3mbfvJPGBw-41" target="e9U0abkdqi3mbfvJPGBw-47">
          <mxGeometry relative="1" as="geometry" />
        </mxCell>
        <mxCell id="e9U0abkdqi3mbfvJPGBw-41" value="Send Verdict" style="ellipse;whiteSpace=wrap;html=1;align=center;" vertex="1" parent="1">
          <mxGeometry x="300" y="430" width="80" height="40" as="geometry" />
        </mxCell>
        <mxCell id="e9U0abkdqi3mbfvJPGBw-44" style="edgeStyle=orthogonalEdgeStyle;rounded=0;orthogonalLoop=1;jettySize=auto;html=1;exitX=0.5;exitY=0;exitDx=0;exitDy=0;entryX=1;entryY=1;entryDx=0;entryDy=0;entryPerimeter=0;" edge="1" parent="1" source="e9U0abkdqi3mbfvJPGBw-41" target="e9U0abkdqi3mbfvJPGBw-23">
          <mxGeometry relative="1" as="geometry" />
        </mxCell>
        <mxCell id="e9U0abkdqi3mbfvJPGBw-47" value="Record Verdict" style="ellipse;whiteSpace=wrap;html=1;align=center;" vertex="1" parent="1">
          <mxGeometry x="510" y="430" width="100" height="40" as="geometry" />
        </mxCell>
        <mxCell id="e9U0abkdqi3mbfvJPGBw-53" style="edgeStyle=orthogonalEdgeStyle;rounded=0;orthogonalLoop=1;jettySize=auto;html=1;exitX=0.5;exitY=1;exitDx=0;exitDy=0;entryX=0.5;entryY=0;entryDx=0;entryDy=0;" edge="1" parent="1" source="e9U0abkdqi3mbfvJPGBw-50" target="e9U0abkdqi3mbfvJPGBw-30">
          <mxGeometry relative="1" as="geometry" />
        </mxCell>
        <mxCell id="e9U0abkdqi3mbfvJPGBw-50" value="Procure Ticket Details Report" style="ellipse;whiteSpace=wrap;html=1;align=center;" vertex="1" parent="1">
          <mxGeometry x="640" y="260" width="100" height="40" as="geometry" />
        </mxCell>
        <mxCell id="e9U0abkdqi3mbfvJPGBw-54" style="edgeStyle=orthogonalEdgeStyle;rounded=0;orthogonalLoop=1;jettySize=auto;html=1;exitX=0.5;exitY=1;exitDx=0;exitDy=0;entryX=1;entryY=1;entryDx=0;entryDy=0;entryPerimeter=0;" edge="1" parent="1" source="e9U0abkdqi3mbfvJPGBw-30" target="e9U0abkdqi3mbfvJPGBw-32">
          <mxGeometry relative="1" as="geometry" />
        </mxCell>
        <mxCell id="e9U0abkdqi3mbfvJPGBw-55" style="edgeStyle=orthogonalEdgeStyle;rounded=0;orthogonalLoop=1;jettySize=auto;html=1;exitX=0;exitY=0.5;exitDx=0;exitDy=0;entryX=1;entryY=0.3333333333333333;entryDx=0;entryDy=0;entryPerimeter=0;" edge="1" parent="1" source="e9U0abkdqi3mbfvJPGBw-50" target="e9U0abkdqi3mbfvJPGBw-23">
          <mxGeometry relative="1" as="geometry" />
        </mxCell>
        <mxCell id="e9U0abkdqi3mbfvJPGBw-57" value="Generate Warrant Request" style="ellipse;whiteSpace=wrap;html=1;align=center;" vertex="1" parent="1">
          <mxGeometry x="500" y="590" width="110" height="40" as="geometry" />
        </mxCell>
        <mxCell id="e9U0abkdqi3mbfvJPGBw-58" style="edgeStyle=orthogonalEdgeStyle;rounded=0;orthogonalLoop=1;jettySize=auto;html=1;exitX=0;exitY=0.5;exitDx=0;exitDy=0;entryX=1;entryY=0.3333333333333333;entryDx=0;entryDy=0;entryPerimeter=0;" edge="1" parent="1" source="e9U0abkdqi3mbfvJPGBw-57" target="e9U0abkdqi3mbfvJPGBw-32">
          <mxGeometry relative="1" as="geometry" />
        </mxCell>
      </root>
    </mxGraphModel>
  </diagram>
</mxfile>
